<svg role="img" xmlns="http://www.w3.org/2000/svg" width="96" height="96" viewBox="0 0 14 14"><g fill="none" fill-rule="evenodd" clip-rule="evenodd"><path fill="#1976d2" d="M2.107 2.02C3.432 1.84 4.752 1.75 6.071 1.75s2.64.09 3.965.27c.9.122 1.598.84 1.69 1.744c.11 1.08.164 2.166.164 3.256s-.055 2.176-.164 3.256a1.96 1.96 0 0 1-1.69 1.744c-1.326.18-2.646.27-3.965.27s-2.639-.09-3.964-.27a1.96 1.96 0 0 1-1.69-1.744A32.4 32.4 0 0 1 .252 7.02c0-1.09.055-2.176.164-3.256A1.96 1.96 0 0 1 2.107 2.02"/><path fill="#eaf5ff" d="M3.057 4.407a1.16 1.16 0 1 1 2.32 0a1.16 1.16 0 0 1-2.32 0m8.725 4.15c-.02.426-.05.852-.093 1.276a1.96 1.96 0 0 1-1.69 1.744c-1.325.18-2.645.27-3.964.27s-2.64-.09-3.965-.27a1.96 1.96 0 0 1-1.69-1.744a33 33 0 0 1-.078-.954l2.632-2.137a1.25 1.25 0 0 1 1.663.077l1.068 1.045a.35.35 0 0 0 .49 0l.492-.48a1.25 1.25 0 0 1 1.71-.033z"/></g></svg>
