<svg xmlns="http://www.w3.org/2000/svg" viewBox="0 0 360 132" role="img" aria-label="Weekday WinMart voucher frame">
  <defs>
    <linearGradient id="weekdayVoucher" x1="18" y1="12" x2="336" y2="124" gradientUnits="userSpaceOnUse">
      <stop offset="0" stop-color="#fffdf8"/>
      <stop offset=".62" stop-color="#e9f8ef"/>
      <stop offset="1" stop-color="#d8f0e0"/>
    </linearGradient>
    <pattern id="weekdayVoucherPattern" width="18" height="18" patternUnits="userSpaceOnUse">
      <circle cx="4" cy="5" r="1.2" fill="#007a3d" opacity=".13"/>
    </pattern>
    <filter id="voucherShadow" x="6" y="6" width="348" height="124" filterUnits="userSpaceOnUse" color-interpolation-filters="sRGB">
      <feDropShadow dx="0" dy="5" stdDeviation="4" flood-color="#17231b" flood-opacity=".14"/>
    </filter>
  </defs>
  <g filter="url(#voucherShadow)">
    <path d="M23 16h314a10 10 0 0 1 10 10v28a18 18 0 0 0 0 36v16a10 10 0 0 1-10 10H23a10 10 0 0 1-10-10V90a18 18 0 0 0 0-36V26a10 10 0 0 1 10-10Z" fill="url(#weekdayVoucher)" stroke="#007a3d" stroke-width="3"/>
    <path d="M23 16h314a10 10 0 0 1 10 10v16H13V26a10 10 0 0 1 10-10Z" fill="#007a3d"/>
    <path d="M13 42h334v11H13Z" fill="#ffd95a"/>
    <path d="M247 52v62" stroke="#007a3d" stroke-width="2" stroke-dasharray="6 7" opacity=".55"/>
    <path d="M13 54a18 18 0 0 1 0 36M347 54a18 18 0 0 0 0 36" fill="none" stroke="#fffdf8" stroke-width="5"/>
    <rect x="28" y="68" width="190" height="25" rx="12.5" fill="#fffdf8"/>
    <rect x="28" y="98" width="126" height="8" rx="4" fill="#16833a" opacity=".32"/>
    <circle cx="292" cy="83" r="30" fill="#007a3d"/>
    <path d="M278 84h28M292 70v28" stroke="#fffdf8" stroke-width="7" stroke-linecap="round"/>
    <path d="M13 42h334v74H13Z" fill="url(#weekdayVoucherPattern)"/>
    <path d="M31 26h92" stroke="#fffdf8" stroke-width="7" stroke-linecap="round" opacity=".6"/>
  </g>
</svg>
