<svg xmlns="http://www.w3.org/2000/svg" viewBox="0 0 96 96" role="img" aria-label="Wheel pointer">
  <defs>
    <linearGradient id="pointerBody" x1="28" y1="12" x2="68" y2="86" gradientUnits="userSpaceOnUse">
      <stop offset="0" stop-color="#ff5c62"/>
      <stop offset=".58" stop-color="#d71920"/>
      <stop offset="1" stop-color="#9f1418"/>
    </linearGradient>
    <linearGradient id="pointerGloss" x1="36" y1="16" x2="50" y2="54" gradientUnits="userSpaceOnUse">
      <stop offset="0" stop-color="#fffdf8" stop-opacity=".86"/>
      <stop offset="1" stop-color="#fffdf8" stop-opacity="0"/>
    </linearGradient>
    <filter id="pointerShadow" x="10" y="8" width="76" height="86" filterUnits="userSpaceOnUse" color-interpolation-filters="sRGB">
      <feDropShadow dx="0" dy="5" stdDeviation="3" flood-color="#17231b" flood-opacity=".22"/>
    </filter>
  </defs>
  <path d="M48 87 18 24c-2.3-4.8 1.2-10.3 6.6-10.3h52.8c5.4 0 8.9 5.5 6.6 10.3L54 87c-1.2 2.7-4.8 2.7-6 0Z" fill="url(#pointerBody)" filter="url(#pointerShadow)"/>
  <path d="M48 73 29.5 28.5c-1.2-2.9.9-6 4-6H48Z" fill="url(#pointerGloss)" opacity=".72"/>
  <path d="M26 17.8h48c3.9 0 6.4 4 4.8 7.5l-2.4 5H21.6l-2.4-5c-1.6-3.5.9-7.5 4.8-7.5Z" fill="#ffd95a"/>
  <path d="M26 17.8h48c3.9 0 6.4 4 4.8 7.5l-.5 1.1H20.7l-.5-1.1c-1.6-3.5.9-7.5 4.8-7.5Z" fill="#fffdf8" opacity=".58"/>
  <circle cx="48" cy="26" r="8" fill="#fffdf8"/>
  <circle cx="48" cy="26" r="4.2" fill="#16833a"/>
</svg>
