<svg xmlns="http://www.w3.org/2000/svg" viewBox="0 0 320 320" role="img" aria-label="Main lucky wheel">
  <defs>
    <linearGradient id="rim" x1="66" y1="30" x2="246" y2="292" gradientUnits="userSpaceOnUse">
      <stop offset="0" stop-color="#fffdf8"/>
      <stop offset=".5" stop-color="#ffd95a"/>
      <stop offset="1" stop-color="#e1ab22"/>
    </linearGradient>
    <radialGradient id="hub" cx="42%" cy="32%" r="70%">
      <stop offset="0" stop-color="#fffdf8"/>
      <stop offset=".7" stop-color="#ffffff"/>
      <stop offset="1" stop-color="#dde7df"/>
    </radialGradient>
    <pattern id="dots" width="18" height="18" patternUnits="userSpaceOnUse">
      <circle cx="4" cy="4" r="1.4" fill="#fffdf8" opacity=".38"/>
    </pattern>
    <filter id="softShadow" x="18" y="18" width="284" height="292" filterUnits="userSpaceOnUse" color-interpolation-filters="sRGB">
      <feDropShadow dx="0" dy="9" stdDeviation="6" flood-color="#17231b" flood-opacity=".18"/>
    </filter>
  </defs>
  <circle cx="160" cy="166" r="134" fill="#17231b" opacity=".12"/>
  <g filter="url(#softShadow)">
    <circle cx="160" cy="156" r="138" fill="url(#rim)"/>
    <circle cx="160" cy="156" r="119" fill="#fffdf8"/>
    <path d="M160 156 160 37a119 119 0 0 1 103 59.5Z" fill="#d71920"/>
    <path d="M160 156 263 96.5a119 119 0 0 1 0 119Z" fill="#ffd95a"/>
    <path d="M160 156 263 215.5A119 119 0 0 1 160 275Z" fill="#16833a"/>
    <path d="M160 156v119A119 119 0 0 1 57 215.5Z" fill="#eaf5ff"/>
    <path d="M160 156 57 215.5a119 119 0 0 1 0-119Z" fill="#fff0e7"/>
    <path d="M160 156 57 96.5A119 119 0 0 1 160 37Z" fill="#007a3d"/>
    <circle cx="160" cy="156" r="119" fill="url(#dots)"/>
    <circle cx="160" cy="156" r="119" fill="none" stroke="#fffdf8" stroke-width="6" opacity=".8"/>
    <g stroke="#fffdf8" stroke-width="3" opacity=".72">
      <path d="M160 156V39"/>
      <path d="m160 156 101-58"/>
      <path d="m160 156 101 58"/>
      <path d="M160 156v117"/>
      <path d="m160 156-101 58"/>
      <path d="m160 156-101-58"/>
    </g>
    <path d="M72 79c39-43 101-57 154-35" fill="none" stroke="#fffdf8" stroke-width="11" stroke-linecap="round" opacity=".45"/>
    <g fill="#fffdf8" opacity=".9">
      <circle cx="160" cy="75" r="11"/>
      <path d="m226 116 9 15 17 2-12 12 3 17-17-8-15 8 3-17-12-12 17-2Z" fill="#fffdf8"/>
      <rect x="220" y="204" width="34" height="26" rx="8" transform="rotate(16 237 217)" fill="#fffdf8"/>
      <circle cx="160" cy="240" r="10" fill="#16833a" opacity=".72"/>
      <rect x="78" y="199" width="34" height="28" rx="8" transform="rotate(-13 95 213)" fill="#fffdf8"/>
      <path d="M88 112h28v28H88zM96 120h8v8h-8zM108 120h8v8h-8zM96 132h8v8h-8z" fill="#fffdf8"/>
    </g>
    <circle cx="160" cy="156" r="54" fill="url(#hub)" stroke="#e1ab22" stroke-width="7"/>
    <circle cx="160" cy="156" r="33" fill="#d71920"/>
    <path d="M145 144h30l11 13-26 29-26-29Z" fill="#ffd95a"/>
    <path d="M145 144h30l-5 10h-20Z" fill="#fffdf8" opacity=".55"/>
  </g>
</svg>
