<svg xmlns="http://www.w3.org/2000/svg" viewBox="0 0 240 220" role="img" aria-label="O'Food pack with QR code">
  <defs>
    <linearGradient id="packFace" x1="64" y1="30" x2="166" y2="202" gradientUnits="userSpaceOnUse">
      <stop offset="0" stop-color="#ff5c62"/>
      <stop offset=".58" stop-color="#d71920"/>
      <stop offset="1" stop-color="#9f1418"/>
    </linearGradient>
    <linearGradient id="packSide" x1="161" y1="41" x2="196" y2="188" gradientUnits="userSpaceOnUse">
      <stop offset="0" stop-color="#16833a"/>
      <stop offset="1" stop-color="#007a3d"/>
    </linearGradient>
    <filter id="packShadow" x="35" y="18" width="184" height="208" filterUnits="userSpaceOnUse" color-interpolation-filters="sRGB">
      <feDropShadow dx="0" dy="8" stdDeviation="6" flood-color="#17231b" flood-opacity=".18"/>
    </filter>
  </defs>
  <ellipse cx="121" cy="203" rx="72" ry="12" fill="#17231b" opacity=".12"/>
  <g filter="url(#packShadow)">
    <path d="M56 39h113l24 24v151H56Z" fill="url(#packFace)"/>
    <path d="M169 39 193 63v151l-24-19Z" fill="url(#packSide)"/>
    <path d="M56 39h113l24 24H79Z" fill="#ffd95a"/>
    <path d="M72 59h60" stroke="#fffdf8" stroke-width="9" stroke-linecap="round" opacity=".7"/>
    <rect x="79" y="92" width="84" height="84" rx="12" fill="#fffdf8"/>
    <g fill="#17231b">
      <rect x="92" y="105" width="18" height="18" rx="2"/><rect x="132" y="105" width="18" height="18" rx="2"/>
      <rect x="92" y="145" width="18" height="18" rx="2"/><rect x="118" y="126" width="10" height="10"/>
      <rect x="132" y="139" width="10" height="10"/><rect x="146" y="153" width="8" height="8"/>
      <rect x="116" y="151" width="10" height="10"/><rect x="146" y="126" width="8" height="8"/>
    </g>
    <path d="M92 189h70" stroke="#fffdf8" stroke-width="8" stroke-linecap="round" opacity=".72"/>
    <path d="M89 73c19-10 42-10 63 0" fill="none" stroke="#16833a" stroke-width="7" stroke-linecap="round"/>
    <path d="M66 72h26" stroke="#fffdf8" stroke-width="4" opacity=".42"/>
  </g>
</svg>
